<?xml version="1.0" encoding="UTF-8" standalone="no"?>
<svg
   xmlns:dc="http://purl.org/dc/elements/1.1/"
   xmlns:cc="http://creativecommons.org/ns#"
   xmlns:rdf="http://www.w3.org/1999/02/22-rdf-syntax-ns#"
   xmlns:svg="http://www.w3.org/2000/svg"
   xmlns="http://www.w3.org/2000/svg"
   xmlns:sodipodi="http://sodipodi.sourceforge.net/DTD/sodipodi-0.dtd"
   xmlns:inkscape="http://www.inkscape.org/namespaces/inkscape"
   width="210mm"
   height="297mm"
   viewBox="0 0 210 297"
   version="1.1"
   id="svg8"
   inkscape:version="1.0 (4035a4fb49, 2020-05-01)"
   sodipodi:docname="accets.svg">
  <defs
     id="defs2">
    <clipPath
       clipPathUnits="userSpaceOnUse"
       id="clipPath977">
      <rect
         style="fill:none;stroke:#000000;stroke-width:0.750001;stroke-miterlimit:4;stroke-dasharray:none;stroke-dashoffset:0"
         id="rect979"
         width="80.84903"
         height="38.887714"
         x="35.546848"
         y="78.844505"
         rx="4.9444804"
         ry="1.173107e-12" />
    </clipPath>
  </defs>
  <sodipodi:namedview
     id="base"
     pagecolor="#ffffff"
     bordercolor="#666666"
     borderopacity="1.0"
     inkscape:pageopacity="0.0"
     inkscape:pageshadow="2"
     inkscape:zoom="0.98994949"
     inkscape:cx="414.9443"
     inkscape:cy="419.38436"
     inkscape:document-units="mm"
     inkscape:current-layer="layer1"
     inkscape:document-rotation="0"
     showgrid="false"
     showguides="true"
     inkscape:guide-bbox="true"
     inkscape:window-width="1920"
     inkscape:window-height="1027"
     inkscape:window-x="-8"
     inkscape:window-y="133"
     inkscape:window-maximized="1">
    <sodipodi:guide
       position="0,297"
       orientation="0,1"
       id="guide833"
       inkscape:label=""
       inkscape:locked="false"
       inkscape:color="rgb(0,0,255)" />
    <sodipodi:guide
       position="114.9259,246.21879"
       orientation="0,1"
       id="guide835"
       inkscape:label=""
       inkscape:locked="false"
       inkscape:color="rgb(0,0,255)" />
    <sodipodi:guide
       position="0,297"
       orientation="-1,0"
       id="guide837"
       inkscape:label=""
       inkscape:locked="false"
       inkscape:color="rgb(0,0,255)" />
    <sodipodi:guide
       position="50,297"
       orientation="-1,0"
       id="guide839"
       inkscape:label=""
       inkscape:locked="false"
       inkscape:color="rgb(0,0,255)" />
    <sodipodi:guide
       position="100,297"
       orientation="-1,0"
       id="guide841"
       inkscape:label=""
       inkscape:locked="false"
       inkscape:color="rgb(0,0,255)" />
    <sodipodi:guide
       position="150,297"
       orientation="-1,0"
       id="guide843"
       inkscape:label=""
       inkscape:locked="false"
       inkscape:color="rgb(0,0,255)" />
    <sodipodi:guide
       position="200,297"
       orientation="-1,0"
       id="guide845"
       inkscape:label=""
       inkscape:locked="false"
       inkscape:color="rgb(0,0,255)" />
    <sodipodi:guide
       position="0,272"
       orientation="0,1"
       id="guide919"
       inkscape:label=""
       inkscape:locked="false"
       inkscape:color="rgb(0,0,255)" />
  </sodipodi:namedview>
  <metadata
     id="metadata5">
    <rdf:RDF>
      <cc:Work
         rdf:about="">
        <dc:format>image/svg+xml</dc:format>
        <dc:type
           rdf:resource="http://purl.org/dc/dcmitype/StillImage" />
        <dc:title />
      </cc:Work>
    </rdf:RDF>
  </metadata>
  <g
     inkscape:label="Camada 1"
     inkscape:groupmode="layer"
     id="layer1">
    <text
       xml:space="preserve"
       style="font-style:normal;font-variant:normal;font-weight:normal;font-stretch:normal;font-size:6.45243px;line-height:1.25;font-family:sans-serif;-inkscape-font-specification:'sans-serif, Normal';font-variant-ligatures:normal;font-variant-caps:normal;font-variant-numeric:normal;font-feature-settings:normal;text-align:start;letter-spacing:0px;word-spacing:0px;writing-mode:lr-tb;text-anchor:start;fill:#000000;fill-opacity:1;stroke:none;stroke-width:0.264583"
       x="20.735605"
       y="15.683542"
       id="text849"><tspan
         sodipodi:role="line"
         id="tspan847"
         x="20.735605"
         y="15.683542"
         style="stroke-width:0.264583">Grid</tspan></text>
    <text
       id="text849-0"
       y="15.253483"
       x="66.819427"
       style="font-style:normal;font-variant:normal;font-weight:normal;font-stretch:normal;font-size:6.45242px;line-height:1.25;font-family:sans-serif;-inkscape-font-specification:'sans-serif, Normal';font-variant-ligatures:normal;font-variant-caps:normal;font-variant-numeric:normal;font-feature-settings:normal;text-align:start;letter-spacing:0px;word-spacing:0px;writing-mode:lr-tb;text-anchor:start;fill:#000000;fill-opacity:1;stroke:none;stroke-width:0.264583"
       xml:space="preserve"><tspan
         style="stroke-width:0.264583"
         y="15.253483"
         x="66.819427"
         id="tspan847-9"
         sodipodi:role="line">AC/DC</tspan></text>
    <text
       xml:space="preserve"
       style="font-style:normal;font-variant:normal;font-weight:normal;font-stretch:normal;font-size:6.45242px;line-height:1.25;font-family:sans-serif;-inkscape-font-specification:'sans-serif, Normal';font-variant-ligatures:normal;font-variant-caps:normal;font-variant-numeric:normal;font-feature-settings:normal;text-align:start;letter-spacing:0px;word-spacing:0px;writing-mode:lr-tb;text-anchor:start;fill:#000000;fill-opacity:1;stroke:none;stroke-width:0.264583"
       x="119.67544"
       y="15.253483"
       id="text849-0-3"><tspan
         sodipodi:role="line"
         id="tspan847-9-4"
         x="119.67544"
         y="15.253483"
         style="stroke-width:0.264583">Load</tspan></text>
    <circle
       style="fill:none;stroke:#000000;stroke-width:0.75;stroke-miterlimit:4;stroke-dasharray:none;stroke-dashoffset:0"
       id="path921"
       cx="27.405426"
       cy="25.78121"
       r="7.1249995" />
    <text
       xml:space="preserve"
       style="font-style:normal;font-variant:normal;font-weight:normal;font-stretch:normal;font-size:14.519px;line-height:1.25;font-family:sans-serif;-inkscape-font-specification:'sans-serif, Normal';font-variant-ligatures:normal;font-variant-caps:normal;font-variant-numeric:normal;font-feature-settings:normal;text-align:start;letter-spacing:0px;word-spacing:0px;writing-mode:lr-tb;text-anchor:start;fill:#000000;fill-opacity:1;stroke:none;stroke-width:0.264583"
       x="21.464546"
       y="30.467274"
       id="text940"><tspan
         sodipodi:role="line"
         id="tspan938"
         x="21.464546"
         y="30.467274"
         style="stroke-width:0.264583">~</tspan></text>
    <rect
       style="fill:none;stroke:#000000;stroke-width:0.750001;stroke-miterlimit:4;stroke-dasharray:none;stroke-dashoffset:0"
       id="rect942"
       width="20"
       height="15"
       x="67.405426"
       y="18.28121"
       rx="4.9444804"
       ry="1.173107e-12" />
    <path
       style="fill:#000000;stroke-width:0.999998"
       d="m 77.269399,31.250519 v -0.592322 l -0.140893,-0.118578 c -0.122275,-0.102958 -0.137927,-0.14069 -0.118424,-0.286054 0.02207,-0.164531 0.01005,-0.17989 -0.674861,-0.863754 l -0.697329,-0.696239 -0.308692,0.306338 -0.308696,0.306324 -0.108623,-0.11565 -0.108623,-0.115648 0.289762,-0.292374 c 0.159368,-0.160792 0.277558,-0.304551 0.262642,-0.319478 -0.01491,-0.01493 -0.309607,-0.08789 -0.654867,-0.162202 -0.345262,-0.07421 -0.657196,-0.145126 -0.693189,-0.157417 -0.04538,-0.01548 0.02175,-0.107419 0.219069,-0.299864 l 0.284513,-0.277544 -0.773413,-0.773411 c -0.60969,-0.60969 -0.785153,-0.76168 -0.82887,-0.71796 -0.0915,0.09152 -0.217718,0.06334 -0.361667,-0.0805 l -0.136007,-0.136012 h -0.699258 c -0.591334,0 -0.699256,-0.01116 -0.699256,-0.06808 0,-0.05762 0.110487,-0.06794 0.722358,-0.06794 0.662769,0 0.724554,-0.007 0.748954,-0.08384 0.03198,-0.100717 0.23259,-0.20037 0.336856,-0.167266 0.05258,0.0166 0.324276,-0.225885 0.912052,-0.814314 l 0.83716,-0.838073 -0.306888,-0.309266 -0.306888,-0.309253 0.688499,-0.143676 c 0.378672,-0.0791 0.69965,-0.154835 0.713281,-0.168466 0.01367,-0.01395 -0.112343,-0.162968 -0.279939,-0.331852 l -0.304719,-0.307077 0.106105,-0.09975 c 0.05836,-0.05482 0.12575,-0.0996 0.149743,-0.0996 0.02399,0 0.185191,0.142643 0.358207,0.31701 l 0.314577,0.316995 0.657687,-0.645709 c 0.601355,-0.590397 0.656553,-0.65807 0.644445,-0.790055 -0.01613,-0.175762 0.05278,-0.31574 0.174469,-0.354355 0.08603,-0.02734 0.09072,-0.0685 0.09072,-0.796485 0,-0.481584 0.0169,-0.767707 0.04534,-0.767707 0.02836,0 0.04534,0.276219 0.04534,0.737992 v 0.737977 l 0.140946,0.123741 c 0.118997,0.10435 0.137998,0.148949 0.122011,0.285914 -0.01836,0.157235 0.0039,0.184857 0.723624,0.895199 0.408411,0.403126 0.751884,0.741995 0.763275,0.75303 0.01144,0.01116 0.141382,-0.09933 0.28887,-0.24529 0.25625,-0.253577 0.269272,-0.260496 0.293221,-0.156091 0.01381,0.06012 0.07649,0.354103 0.139337,0.65334 0.06284,0.299236 0.124983,0.573321 0.138082,0.609076 0.01667,0.04548 0.115705,-0.02608 0.330087,-0.238902 l 0.30627,-0.303909 0.122094,0.127366 0.122094,0.127508 -0.29452,0.291899 -0.294525,0.291912 0.713948,0.714987 c 0.39267,0.393249 0.738727,0.715002 0.769015,0.715002 0.109385,0 0.284861,0.10616 0.310883,0.188233 0.02464,0.07756 0.08991,0.08385 0.884969,0.08385 0.732771,0 0.858372,0.0097 0.858372,0.06793 0,0.05804 -0.123029,0.06808 -0.835271,0.06808 h -0.835271 l -0.139598,0.139602 c -0.111115,0.111185 -0.165011,0.134064 -0.264182,0.112441 -0.113027,-0.02469 -0.18874,0.03711 -0.816339,0.666035 l -0.691753,0.693196 0.317092,0.314666 0.317091,0.314653 -0.122038,0.127367 -0.122039,0.127368 -0.306764,-0.304413 c -0.168721,-0.167433 -0.31396,-0.29533 -0.322754,-0.28424 -0.0088,0.01116 -0.05169,0.193604 -0.09531,0.405553 -0.04363,0.211962 -0.110586,0.525457 -0.148807,0.696657 l -0.06949,0.311276 -0.29027,-0.2877 -0.290273,-0.287686 -0.742599,0.741577 c -0.730832,0.729817 -0.742242,0.744227 -0.720135,0.909038 0.01949,0.145335 0.0038,0.183155 -0.118425,0.286039 L 77.3601,30.658267 v 0.592321 c 0,0.364664 -0.01742,0.592336 -0.04534,0.592336 -0.02792,0 -0.04534,-0.227672 -0.04534,-0.592336 z m 0.985256,-2.002417 0.736898,-0.735885 -0.279963,-0.282482 c -0.192709,-0.194427 -0.259718,-0.289109 -0.215005,-0.303757 0.03573,-0.01116 0.27918,-0.06528 0.541009,-0.118997 0.261828,-0.05371 0.555537,-0.11802 0.652687,-0.142671 l 0.176635,-0.04492 -0.307151,-0.309533 -0.307152,-0.309518 0.118815,-0.128204 0.118816,-0.128065 0.318057,0.315614 0.31806,0.315629 0.681865,-0.679177 c 0.63163,-0.62915 0.680066,-0.689207 0.657404,-0.815207 -0.01353,-0.07547 0.0032,-0.189112 0.03777,-0.255349 0.06141,-0.117741 0.05306,-0.128483 -0.634766,-0.815249 l -0.696993,-0.695903 -0.330044,0.327835 -0.330046,0.32785 -0.123586,-0.123601 -0.123573,-0.123601 0.302997,-0.305348 c 0.208615,-0.210219 0.282742,-0.312154 0.237972,-0.327235 -0.03577,-0.01256 -0.320052,-0.07547 -0.631753,-0.140787 -0.3117,-0.06543 -0.604828,-0.129879 -0.651393,-0.143299 -0.07115,-0.02051 -0.04038,-0.06906 0.192689,-0.304273 0.152543,-0.153901 0.277352,-0.29992 0.277352,-0.324486 0,-0.02456 -0.325241,-0.369409 -0.722757,-0.76634 l -0.722757,-0.721697 -0.229767,-0.0028 -0.229767,-0.0028 -0.644701,0.645863 -0.644703,0.645849 0.292578,0.295205 0.292579,0.295205 -0.123363,0.123322 -0.123364,0.123322 -0.296359,-0.293531 c -0.202176,-0.200244 -0.307241,-0.275995 -0.330605,-0.238329 -0.01883,0.03027 -0.09373,0.341492 -0.16643,0.691397 -0.07269,0.349919 -0.144081,0.636223 -0.158626,0.636223 -0.01453,0 -0.126922,-0.101976 -0.249725,-0.226694 -0.122806,-0.124717 -0.244246,-0.226695 -0.269866,-0.226695 -0.02563,0 -0.407692,0.360689 -0.84905,0.801536 -0.69847,0.697661 -0.796419,0.812835 -0.755801,0.88874 0.02567,0.04799 0.03508,0.130995 0.02093,0.184564 -0.02108,0.07979 0.111547,0.234953 0.732171,0.856794 0.416851,0.417675 0.772088,0.759419 0.789414,0.759419 0.01733,0 0.145522,-0.112161 0.284881,-0.249364 0.139365,-0.137132 0.269154,-0.249364 0.288436,-0.249364 0.01928,0 0.09454,0.286305 0.16724,0.636224 0.07269,0.349918 0.147595,0.661055 0.166431,0.69141 0.02336,0.03767 0.128009,-0.03767 0.329366,-0.237114 l 0.295119,-0.29229 0.115621,0.108678 0.11562,0.108678 -0.295875,0.298163 c -0.162734,0.163988 -0.295877,0.317805 -0.295877,0.341813 0,0.02399 0.300677,0.344841 0.668172,0.712937 0.662974,0.664083 0.669761,0.6693 0.872264,0.6693 0.203241,0 0.207142,-0.0028 0.940985,-0.735886 z"
       id="path958" />
    <path
       style="fill:none;stroke:#000000;stroke-width:0.511817;stroke-linecap:butt;stroke-linejoin:miter;stroke-miterlimit:4;stroke-dasharray:none;stroke-opacity:1"
       d="m 118.60333,25.44514 3.28389,-0.03624 1.1476,-2.040636 1.70614,4.839048 1.77592,-4.839048 1.63964,4.839048 1.84243,-4.839048 1.57312,4.839048 1.15487,-2.730703 3.48076,-0.03616"
       id="path983"
       sodipodi:nodetypes="cccccccccc" />
    <rect
       ry="1.173107e-12"
       rx="4.9444804"
       y="18.28121"
       x="117.40543"
       height="15"
       width="20"
       id="rect942-1"
       style="fill:none;stroke:#000000;stroke-width:0.750001;stroke-miterlimit:4;stroke-dasharray:none;stroke-dashoffset:0" />
    <path
       style="fill:none;stroke:#000000;stroke-width:0.264583px;stroke-linecap:butt;stroke-linejoin:miter;stroke-opacity:1"
       d="M 34.47777,25.781211 H 67.351921"
       id="path1000" />
    <path
       style="fill:none;stroke:#000000;stroke-width:0.264583px;stroke-linecap:butt;stroke-linejoin:miter;stroke-opacity:1"
       d="M 87.463953,25.781211 H 117.46496"
       id="path1002" />
    <path
       style="fill:none;stroke:#000000;stroke-width:0.264583px;stroke-linecap:butt;stroke-linejoin:miter;stroke-opacity:1"
       d="M 43.297663,23.339582 40.478314,28.22284"
       id="path1004" />
    <path
       id="path1004-9"
       d="M 44.456773,23.339582 41.637424,28.22284"
       style="fill:none;stroke:#000000;stroke-width:0.264583px;stroke-linecap:butt;stroke-linejoin:miter;stroke-opacity:1" />
    <path
       id="path1004-8"
       d="M 96.139066,23.339582 93.319721,28.22284"
       style="fill:none;stroke:#000000;stroke-width:0.264583px;stroke-linecap:butt;stroke-linejoin:miter;stroke-opacity:1" />
    <path
       style="fill:none;stroke:#000000;stroke-width:0.264583px;stroke-linecap:butt;stroke-linejoin:miter;stroke-opacity:1"
       d="m 97.298176,23.339582 -2.819345,4.883259"
       id="path1004-9-3" />
    <rect
       style="fill:none;stroke:#000000;stroke-width:1;stroke-miterlimit:4;stroke-dasharray:1, 1;stroke-dashoffset:0"
       id="rect1066"
       width="62.744045"
       height="30.616072"
       x="65.905426"
       y="50.781212"
       rx="4.9444804"
       ry="1.173107e-12" />
    <text
       xml:space="preserve"
       style="font-style:normal;font-variant:normal;font-weight:normal;font-stretch:normal;font-size:3.52777px;line-height:1.25;font-family:sans-serif;-inkscape-font-specification:'sans-serif, Normal';font-variant-ligatures:normal;font-variant-caps:normal;font-variant-numeric:normal;font-feature-settings:normal;text-align:start;letter-spacing:0px;word-spacing:0px;writing-mode:lr-tb;text-anchor:start;fill:#000000;fill-opacity:1;stroke:none;stroke-width:0.264583"
       x="75.395119"
       y="57.62883"
       id="text1070"><tspan
         sodipodi:role="line"
         x="75.395119"
         y="57.62883"
         style="stroke-width:0.264583"
         id="tspan1074">Measurement + MATLAB</tspan></text>
    <text
       id="text1070-0"
       y="68.579651"
       x="51.488121"
       style="font-style:normal;font-variant:normal;font-weight:normal;font-stretch:normal;font-size:3.52777px;line-height:1.25;font-family:sans-serif;-inkscape-font-specification:'sans-serif, Normal';font-variant-ligatures:normal;font-variant-caps:normal;font-variant-numeric:normal;font-feature-settings:normal;text-align:start;letter-spacing:0px;word-spacing:0px;writing-mode:lr-tb;text-anchor:start;fill:#000000;fill-opacity:1;stroke:none;stroke-width:0.264583"
       xml:space="preserve"><tspan
         id="tspan1074-0"
         style="stroke-width:0.264583"
         y="68.579651"
         x="51.488121"
         sodipodi:role="line">V_ch1</tspan></text>
    <text
       xml:space="preserve"
       style="font-style:normal;font-variant:normal;font-weight:normal;font-stretch:normal;font-size:3.52777px;line-height:1.25;font-family:sans-serif;-inkscape-font-specification:'sans-serif, Normal';font-variant-ligatures:normal;font-variant-caps:normal;font-variant-numeric:normal;font-feature-settings:normal;text-align:start;letter-spacing:0px;word-spacing:0px;writing-mode:lr-tb;text-anchor:start;fill:#000000;fill-opacity:1;stroke:none;stroke-width:0.264583"
       x="51.296917"
       y="74.98246"
       id="text1070-0-3"><tspan
         sodipodi:role="line"
         x="51.296917"
         y="74.98246"
         style="stroke-width:0.264583"
         id="tspan1074-0-8">I_ch1</tspan></text>
    <ellipse
       style="fill:none;stroke:#000000;stroke-width:0.5;stroke-miterlimit:4;stroke-dasharray:none;stroke-dashoffset:0"
       id="path1116"
       cx="49.699692"
       cy="26.283503"
       rx="1.6536458"
       ry="2.6756551" />
    <path
       style="fill:none;stroke:#000000;stroke-width:0.264583px;stroke-linecap:butt;stroke-linejoin:miter;stroke-opacity:1"
       d="M 49.746943,29.129426 V 70.895793 H 65.227109"
       id="path1118"
       sodipodi:nodetypes="ccc" />
    <text
       xml:space="preserve"
       style="font-style:normal;font-variant:normal;font-weight:normal;font-stretch:normal;font-size:3.52777px;line-height:1.25;font-family:sans-serif;-inkscape-font-specification:'sans-serif, Normal';font-variant-ligatures:normal;font-variant-caps:normal;font-variant-numeric:normal;font-feature-settings:normal;text-align:start;letter-spacing:0px;word-spacing:0px;writing-mode:lr-tb;text-anchor:start;fill:#000000;fill-opacity:1;stroke:none;stroke-width:0.264583"
       x="79.436974"
       y="64.65918"
       id="text1122"><tspan
         sodipodi:role="line"
         id="tspan1120"
         x="79.436974"
         y="64.65918"
         style="stroke-width:0.264583">- Grid voltage analysis</tspan><tspan
         sodipodi:role="line"
         x="79.436974"
         y="69.068893"
         style="stroke-width:0.264583"
         id="tspan1124">- Spectrum Analysis</tspan><tspan
         sodipodi:role="line"
         x="79.436974"
         y="73.478607"
         style="stroke-width:0.264583"
         id="tspan1126">- THD</tspan></text>
    <text
       id="text849-01"
       y="-82.143456"
       x="20.988663"
       style="font-style:normal;font-variant:normal;font-weight:normal;font-stretch:normal;font-size:6.45242px;line-height:1.25;font-family:sans-serif;-inkscape-font-specification:'sans-serif, Normal';font-variant-ligatures:normal;font-variant-caps:normal;font-variant-numeric:normal;font-feature-settings:normal;text-align:start;letter-spacing:0px;word-spacing:0px;writing-mode:lr-tb;text-anchor:start;fill:#000000;fill-opacity:1;stroke:none;stroke-width:0.264583"
       xml:space="preserve"><tspan
         style="stroke-width:0.264583"
         y="-82.143456"
         x="20.988663"
         id="tspan847-3"
         sodipodi:role="line">Grid</tspan></text>
    <text
       id="text849-0-3-6"
       y="-82.573509"
       x="119.9285"
       style="font-style:normal;font-variant:normal;font-weight:normal;font-stretch:normal;font-size:6.45242px;line-height:1.25;font-family:sans-serif;-inkscape-font-specification:'sans-serif, Normal';font-variant-ligatures:normal;font-variant-caps:normal;font-variant-numeric:normal;font-feature-settings:normal;text-align:start;letter-spacing:0px;word-spacing:0px;writing-mode:lr-tb;text-anchor:start;fill:#000000;fill-opacity:1;stroke:none;stroke-width:0.264583"
       xml:space="preserve"><tspan
         style="stroke-width:0.264583"
         y="-82.573509"
         x="119.9285"
         id="tspan847-9-4-5"
         sodipodi:role="line">Load</tspan></text>
    <circle
       r="7.1249995"
       cy="-72.045799"
       cx="27.658482"
       id="path921-8"
       style="fill:none;stroke:#000000;stroke-width:0.750001;stroke-miterlimit:4;stroke-dasharray:none;stroke-dashoffset:0" />
    <text
       id="text940-7"
       y="-67.359726"
       x="21.717602"
       style="font-style:normal;font-variant:normal;font-weight:normal;font-stretch:normal;font-size:14.519px;line-height:1.25;font-family:sans-serif;-inkscape-font-specification:'sans-serif, Normal';font-variant-ligatures:normal;font-variant-caps:normal;font-variant-numeric:normal;font-feature-settings:normal;text-align:start;letter-spacing:0px;word-spacing:0px;writing-mode:lr-tb;text-anchor:start;fill:#000000;fill-opacity:1;stroke:none;stroke-width:0.264583"
       xml:space="preserve"><tspan
         style="stroke-width:0.264583"
         y="-67.359726"
         x="21.717602"
         id="tspan938-1"
         sodipodi:role="line">~</tspan></text>
    <path
       sodipodi:nodetypes="cccccccccc"
       id="path983-4"
       d="m 118.85638,-72.381851 3.28389,-0.0362 1.1476,-2.04064 1.70614,4.83905 1.77592,-4.83905 1.63964,4.83905 1.84243,-4.83905 1.57312,4.83905 1.15487,-2.73071 3.48076,-0.0362"
       style="fill:none;stroke:#000000;stroke-width:0.511818;stroke-linecap:butt;stroke-linejoin:miter;stroke-miterlimit:4;stroke-dasharray:none;stroke-opacity:1" />
    <rect
       style="fill:none;stroke:#000000;stroke-width:0.750001;stroke-miterlimit:4;stroke-dasharray:none;stroke-dashoffset:0"
       id="rect942-1-0"
       width="20"
       height="15"
       x="117.65848"
       y="-79.545799"
       rx="4.9444804"
       ry="1.173107e-12" />
    <path
       sodipodi:nodetypes="cc"
       id="path1000-0"
       d="M 34.730826,-72.045781 H 87.71701"
       style="fill:none;stroke:#000000;stroke-width:0.264583px;stroke-linecap:butt;stroke-linejoin:miter;stroke-opacity:1" />
    <path
       id="path1002-6"
       d="m 87.71701,-72.045781 h 30.001"
       style="fill:none;stroke:#000000;stroke-width:0.264583px;stroke-linecap:butt;stroke-linejoin:miter;stroke-opacity:1" />
    <path
       id="path1004-7"
       d="m 43.550719,-74.487411 -2.819349,4.88326"
       style="fill:none;stroke:#000000;stroke-width:0.264583px;stroke-linecap:butt;stroke-linejoin:miter;stroke-opacity:1" />
    <path
       style="fill:none;stroke:#000000;stroke-width:0.264583px;stroke-linecap:butt;stroke-linejoin:miter;stroke-opacity:1"
       d="m 44.709829,-74.487411 -2.819349,4.88326"
       id="path1004-9-1" />
    <rect
       ry="1.173107e-12"
       rx="4.9444804"
       y="-47.045784"
       x="66.158485"
       height="30.616072"
       width="62.744045"
       id="rect1066-7"
       style="fill:none;stroke:#000000;stroke-width:1;stroke-miterlimit:4;stroke-dasharray:1, 1;stroke-dashoffset:0" />
    <text
       id="text1070-7"
       y="-40.198174"
       x="75.64817"
       style="font-style:normal;font-variant:normal;font-weight:normal;font-stretch:normal;font-size:3.52777px;line-height:1.25;font-family:sans-serif;-inkscape-font-specification:'sans-serif, Normal';font-variant-ligatures:normal;font-variant-caps:normal;font-variant-numeric:normal;font-feature-settings:normal;text-align:start;letter-spacing:0px;word-spacing:0px;writing-mode:lr-tb;text-anchor:start;fill:#000000;fill-opacity:1;stroke:none;stroke-width:0.264583"
       xml:space="preserve"><tspan
         id="tspan1074-4"
         style="stroke-width:0.264583"
         y="-40.198174"
         x="75.64817"
         sodipodi:role="line">Measurement + MATLAB</tspan></text>
    <text
       xml:space="preserve"
       style="font-style:normal;font-variant:normal;font-weight:normal;font-stretch:normal;font-size:3.52777px;line-height:1.25;font-family:sans-serif;-inkscape-font-specification:'sans-serif, Normal';font-variant-ligatures:normal;font-variant-caps:normal;font-variant-numeric:normal;font-feature-settings:normal;text-align:start;letter-spacing:0px;word-spacing:0px;writing-mode:lr-tb;text-anchor:start;fill:#000000;fill-opacity:1;stroke:none;stroke-width:0.264583"
       x="51.741177"
       y="-29.247351"
       id="text1070-0-4"><tspan
         sodipodi:role="line"
         x="51.741177"
         y="-29.247351"
         style="stroke-width:0.264583"
         id="tspan1074-0-1">V_ch1</tspan></text>
    <text
       id="text1070-0-3-2"
       y="-22.844534"
       x="51.549969"
       style="font-style:normal;font-variant:normal;font-weight:normal;font-stretch:normal;font-size:3.52777px;line-height:1.25;font-family:sans-serif;-inkscape-font-specification:'sans-serif, Normal';font-variant-ligatures:normal;font-variant-caps:normal;font-variant-numeric:normal;font-feature-settings:normal;text-align:start;letter-spacing:0px;word-spacing:0px;writing-mode:lr-tb;text-anchor:start;fill:#000000;fill-opacity:1;stroke:none;stroke-width:0.264583"
       xml:space="preserve"><tspan
         id="tspan1074-0-8-4"
         style="stroke-width:0.264583"
         y="-22.844534"
         x="51.549969"
         sodipodi:role="line">I_ch1</tspan></text>
    <ellipse
       ry="2.6756554"
       rx="1.6536459"
       cy="-71.543495"
       cx="49.952747"
       id="path1116-4"
       style="fill:none;stroke:#000000;stroke-width:0.499999;stroke-miterlimit:4;stroke-dasharray:none;stroke-dashoffset:0" />
    <path
       sodipodi:nodetypes="ccc"
       id="path1118-8"
       d="m 50,-68.697571 v 41.76637 h 15.480165"
       style="fill:none;stroke:#000000;stroke-width:0.264583px;stroke-linecap:butt;stroke-linejoin:miter;stroke-opacity:1" />
    <text
       id="text1122-6"
       y="-33.167824"
       x="79.690025"
       style="font-style:normal;font-variant:normal;font-weight:normal;font-stretch:normal;font-size:3.52777px;line-height:1.25;font-family:sans-serif;-inkscape-font-specification:'sans-serif, Normal';font-variant-ligatures:normal;font-variant-caps:normal;font-variant-numeric:normal;font-feature-settings:normal;text-align:start;letter-spacing:0px;word-spacing:0px;writing-mode:lr-tb;text-anchor:start;fill:#000000;fill-opacity:1;stroke:none;stroke-width:0.264583"
       xml:space="preserve"><tspan
         style="stroke-width:0.264583"
         y="-33.167824"
         x="79.690025"
         id="tspan1120-6"
         sodipodi:role="line">- Grid voltage analysis</tspan><tspan
         id="tspan1124-1"
         style="stroke-width:0.264583"
         y="-28.758108"
         x="79.690025"
         sodipodi:role="line">- Spectrum Analysis</tspan><tspan
         id="tspan1126-4"
         style="stroke-width:0.264583"
         y="-24.348394"
         x="79.690025"
         sodipodi:role="line">- THD</tspan></text>
    <text
       xml:space="preserve"
       style="font-style:normal;font-variant:normal;font-weight:normal;font-stretch:normal;font-size:3.52777px;line-height:1.25;font-family:sans-serif;-inkscape-font-specification:'sans-serif, Normal';font-variant-ligatures:normal;font-variant-caps:normal;font-variant-numeric:normal;font-feature-settings:normal;text-align:start;letter-spacing:0px;word-spacing:0px;writing-mode:lr-tb;text-anchor:start;fill:#000000;fill-opacity:1;stroke:none;stroke-width:0.264583"
       x="139.85237"
       y="-76.06604"
       id="text1070-0-3-2-3"><tspan
         sodipodi:role="line"
         x="139.85237"
         y="-76.06604"
         style="stroke-width:0.264583"
         id="tspan1074-0-8-4-6">2.2 kW</tspan></text>
    <text
       id="text849-4"
       y="115.22122"
       x="20.988661"
       style="font-style:normal;font-variant:normal;font-weight:normal;font-stretch:normal;font-size:6.45242px;line-height:1.25;font-family:sans-serif;-inkscape-font-specification:'sans-serif, Normal';font-variant-ligatures:normal;font-variant-caps:normal;font-variant-numeric:normal;font-feature-settings:normal;text-align:start;letter-spacing:0px;word-spacing:0px;writing-mode:lr-tb;text-anchor:start;fill:#000000;fill-opacity:1;stroke:none;stroke-width:0.264583"
       xml:space="preserve"><tspan
         style="stroke-width:0.264583"
         y="115.22122"
         x="20.988661"
         id="tspan847-92"
         sodipodi:role="line">Grid</tspan></text>
    <text
       xml:space="preserve"
       style="font-style:normal;font-variant:normal;font-weight:normal;font-stretch:normal;font-size:6.45242px;line-height:1.25;font-family:sans-serif;-inkscape-font-specification:'sans-serif, Normal';font-variant-ligatures:normal;font-variant-caps:normal;font-variant-numeric:normal;font-feature-settings:normal;text-align:start;letter-spacing:0px;word-spacing:0px;writing-mode:lr-tb;text-anchor:start;fill:#000000;fill-opacity:1;stroke:none;stroke-width:0.264583"
       x="67.072479"
       y="114.79118"
       id="text849-0-8"><tspan
         sodipodi:role="line"
         id="tspan847-9-7"
         x="67.072479"
         y="114.79118"
         style="stroke-width:0.264583">AC/DC</tspan></text>
    <text
       id="text849-0-3-2"
       y="115.15823"
       x="99.517784"
       style="font-style:normal;font-variant:normal;font-weight:normal;font-stretch:normal;font-size:6.45242px;line-height:1.25;font-family:sans-serif;-inkscape-font-specification:'sans-serif, Normal';font-variant-ligatures:normal;font-variant-caps:normal;font-variant-numeric:normal;font-feature-settings:normal;text-align:start;letter-spacing:0px;word-spacing:0px;writing-mode:lr-tb;text-anchor:start;fill:#000000;fill-opacity:1;stroke:none;stroke-width:0.264583"
       xml:space="preserve"><tspan
         style="stroke-width:0.264583"
         y="115.15823"
         x="99.517784"
         id="tspan847-9-4-3"
         sodipodi:role="line">Motor-Generator</tspan></text>
    <circle
       r="7.1249995"
       cy="125.31889"
       cx="27.658482"
       id="path921-4"
       style="fill:none;stroke:#000000;stroke-width:0.750001;stroke-miterlimit:4;stroke-dasharray:none;stroke-dashoffset:0" />
    <text
       id="text940-8"
       y="130.00494"
       x="21.717602"
       style="font-style:normal;font-variant:normal;font-weight:normal;font-stretch:normal;font-size:14.519px;line-height:1.25;font-family:sans-serif;-inkscape-font-specification:'sans-serif, Normal';font-variant-ligatures:normal;font-variant-caps:normal;font-variant-numeric:normal;font-feature-settings:normal;text-align:start;letter-spacing:0px;word-spacing:0px;writing-mode:lr-tb;text-anchor:start;fill:#000000;fill-opacity:1;stroke:none;stroke-width:0.264583"
       xml:space="preserve"><tspan
         style="stroke-width:0.264583"
         y="130.00494"
         x="21.717602"
         id="tspan938-3"
         sodipodi:role="line">~</tspan></text>
    <rect
       ry="1.173107e-12"
       rx="4.9444804"
       y="117.81889"
       x="67.658485"
       height="15"
       width="20"
       id="rect942-5"
       style="fill:none;stroke:#000000;stroke-width:0.750001;stroke-miterlimit:4;stroke-dasharray:none;stroke-dashoffset:0" />
    <path
       id="path958-3"
       d="m 77.522456,130.78819 v -0.59232 l -0.140893,-0.11858 c -0.122275,-0.10296 -0.137928,-0.14069 -0.118425,-0.28606 0.02207,-0.16453 0.01005,-0.17989 -0.67486,-0.86375 l -0.69733,-0.69624 -0.308692,0.30634 -0.308695,0.30632 -0.108625,-0.11565 -0.108622,-0.11565 0.289761,-0.29237 c 0.159369,-0.16079 0.277559,-0.30455 0.262644,-0.31948 -0.01492,-0.0149 -0.309607,-0.0879 -0.654867,-0.1622 -0.345263,-0.0742 -0.657196,-0.14513 -0.69319,-0.15742 -0.04538,-0.0155 0.02175,-0.10742 0.21907,-0.29986 l 0.284511,-0.27754 -0.773411,-0.77342 c -0.60969,-0.60969 -0.785154,-0.76168 -0.828871,-0.71796 -0.0915,0.0915 -0.217718,0.0633 -0.361667,-0.0805 l -0.136006,-0.13601 h -0.69926 c -0.591333,0 -0.699254,-0.0112 -0.699254,-0.0681 0,-0.0576 0.110485,-0.0679 0.722358,-0.0679 0.662768,0 0.724553,-0.007 0.748953,-0.0838 0.03198,-0.10071 0.23259,-0.20037 0.336857,-0.16726 0.05258,0.0166 0.324276,-0.22589 0.912051,-0.81432 l 0.83716,-0.83807 -0.306888,-0.30927 -0.306887,-0.30925 0.688498,-0.14368 c 0.378672,-0.0791 0.699651,-0.15483 0.71328,-0.16846 0.01368,-0.0139 -0.112342,-0.16297 -0.279937,-0.33185 l -0.304721,-0.30708 0.106106,-0.0998 c 0.05836,-0.0548 0.125751,-0.0996 0.149744,-0.0996 0.024,0 0.18519,0.14264 0.358206,0.31701 l 0.314576,0.31699 0.657688,-0.6457 c 0.601356,-0.5904 0.656553,-0.65807 0.644446,-0.79006 -0.01614,-0.17576 0.05278,-0.31574 0.174469,-0.35435 0.08603,-0.0273 0.09072,-0.0685 0.09072,-0.79649 0,-0.48158 0.01691,-0.76771 0.04534,-0.76771 0.02836,0 0.04534,0.27622 0.04534,0.738 v 0.73797 l 0.140946,0.12374 c 0.118999,0.10435 0.137999,0.14895 0.122013,0.28592 -0.01836,0.15723 0.0039,0.18485 0.723622,0.8952 0.408411,0.40312 0.751885,0.74199 0.763275,0.75303 0.01143,0.0112 0.141383,-0.0993 0.28887,-0.24529 0.256251,-0.25358 0.269274,-0.2605 0.293222,-0.15609 0.01381,0.0601 0.07649,0.3541 0.139337,0.65334 0.06284,0.29923 0.124984,0.57332 0.138081,0.60907 0.01667,0.0455 0.115705,-0.0261 0.330089,-0.2389 l 0.306268,-0.30391 0.122095,0.12737 0.122095,0.1275 -0.294521,0.2919 -0.294524,0.29192 0.713946,0.71498 c 0.392671,0.39325 0.738728,0.715 0.769017,0.715 0.109384,0 0.284861,0.10616 0.310883,0.18824 0.02463,0.0776 0.08991,0.0839 0.884968,0.0839 0.732771,0 0.858372,0.01 0.858372,0.0679 0,0.058 -0.123029,0.0681 -0.835272,0.0681 h -0.835273 l -0.139596,0.1396 c -0.111115,0.11118 -0.165013,0.13406 -0.264182,0.11244 -0.113027,-0.0247 -0.18874,0.0371 -0.81634,0.66604 l -0.691753,0.69319 0.317093,0.31467 0.31709,0.31465 -0.122037,0.12737 -0.122039,0.12737 -0.306766,-0.30442 c -0.168719,-0.16743 -0.31396,-0.29533 -0.322752,-0.28424 -0.0088,0.0112 -0.05169,0.19361 -0.09531,0.40556 -0.04363,0.21196 -0.110585,0.52545 -0.148807,0.69665 l -0.06949,0.31128 -0.290269,-0.2877 -0.290274,-0.28769 -0.742598,0.74158 c -0.730832,0.72982 -0.742244,0.74423 -0.720135,0.90904 0.0195,0.14533 0.0038,0.18315 -0.118425,0.28604 l -0.140896,0.11858 v 0.59232 c 0,0.36466 -0.01741,0.59233 -0.04534,0.59233 -0.02792,0 -0.04534,-0.22767 -0.04534,-0.59233 z m 0.985255,-2.00242 0.736899,-0.73588 -0.279963,-0.28249 c -0.19271,-0.19442 -0.259718,-0.28911 -0.215006,-0.30375 0.03573,-0.0112 0.27918,-0.0653 0.541009,-0.119 0.261829,-0.0537 0.555538,-0.11802 0.652688,-0.14267 l 0.176633,-0.0449 -0.30715,-0.30953 -0.307152,-0.30952 0.118814,-0.12821 0.118817,-0.12806 0.318058,0.31561 0.318058,0.31563 0.681866,-0.67918 c 0.631629,-0.62915 0.680066,-0.6892 0.657405,-0.8152 -0.01352,-0.0755 0.0032,-0.18911 0.03777,-0.25535 0.06141,-0.11774 0.05306,-0.12848 -0.634765,-0.81525 l -0.696994,-0.6959 -0.330044,0.32783 -0.330047,0.32785 -0.123584,-0.1236 -0.123573,-0.1236 0.302995,-0.30535 c 0.208616,-0.21022 0.282744,-0.31215 0.237974,-0.32723 -0.03577,-0.0126 -0.320053,-0.0755 -0.631753,-0.14079 -0.311701,-0.0654 -0.60483,-0.12988 -0.651394,-0.1433 -0.07115,-0.0205 -0.04038,-0.0691 0.192688,-0.30427 0.152543,-0.1539 0.277352,-0.29992 0.277352,-0.32449 0,-0.0246 -0.325239,-0.36941 -0.722757,-0.76634 l -0.722757,-0.7217 -0.229766,-0.003 -0.229767,-0.003 -0.6447,0.64587 -0.644705,0.64585 0.292579,0.2952 0.292579,0.29521 -0.123362,0.12332 -0.123365,0.12332 -0.296359,-0.29353 c -0.202176,-0.20024 -0.30724,-0.276 -0.330605,-0.23833 -0.01884,0.0303 -0.09373,0.34149 -0.166431,0.6914 -0.07269,0.34992 -0.144079,0.63622 -0.158626,0.63622 -0.01452,0 -0.12692,-0.10198 -0.249724,-0.22669 -0.122806,-0.12472 -0.244245,-0.2267 -0.269867,-0.2267 -0.02564,0 -0.407691,0.36069 -0.849048,0.80154 -0.698471,0.69766 -0.79642,0.81283 -0.755801,0.88874 0.02566,0.048 0.03508,0.13099 0.02093,0.18456 -0.02109,0.0798 0.111548,0.23495 0.732171,0.8568 0.416851,0.41767 0.772088,0.75941 0.789413,0.75941 0.01733,0 0.145524,-0.11216 0.284882,-0.24936 0.139364,-0.13713 0.269153,-0.24936 0.288436,-0.24936 0.01929,0 0.09454,0.2863 0.16724,0.63622 0.07269,0.34992 0.147595,0.66106 0.166431,0.69141 0.02336,0.0377 0.128008,-0.0377 0.329367,-0.23711 l 0.295119,-0.29229 0.11562,0.10867 0.11562,0.10868 -0.295876,0.29817 c -0.162734,0.16398 -0.295875,0.3178 -0.295875,0.34181 0,0.024 0.300675,0.34484 0.668171,0.71294 0.662974,0.66408 0.669761,0.6693 0.872265,0.6693 0.203239,0 0.207142,-0.003 0.940985,-0.73589 z"
       style="fill:#000000;stroke-width:0.999998" />
    <rect
       style="fill:none;stroke:#000000;stroke-width:0.837892;stroke-miterlimit:4;stroke-dasharray:none;stroke-dashoffset:0"
       id="rect942-1-2"
       width="25.109282"
       height="14.912109"
       x="114.28196"
       y="117.86285"
       rx="4.9444804"
       ry="1.173107e-12" />
    <path
       id="path1000-1"
       d="M 34.730826,125.31888 H 67.604978"
       style="fill:none;stroke:#000000;stroke-width:0.264583px;stroke-linecap:butt;stroke-linejoin:miter;stroke-opacity:1" />
    <path
       sodipodi:nodetypes="cc"
       id="path1002-7"
       d="m 87.71701,125.31888 h 26.6719"
       style="fill:none;stroke:#000000;stroke-width:0.264583px;stroke-linecap:butt;stroke-linejoin:miter;stroke-opacity:1" />
    <path
       id="path1004-71"
       d="m 43.550719,122.87725 -2.819349,4.88326"
       style="fill:none;stroke:#000000;stroke-width:0.264583px;stroke-linecap:butt;stroke-linejoin:miter;stroke-opacity:1" />
    <path
       style="fill:none;stroke:#000000;stroke-width:0.264583px;stroke-linecap:butt;stroke-linejoin:miter;stroke-opacity:1"
       d="m 44.709829,122.87725 -2.819349,4.88326"
       id="path1004-9-9" />
    <path
       style="fill:none;stroke:#000000;stroke-width:0.264583px;stroke-linecap:butt;stroke-linejoin:miter;stroke-opacity:1"
       d="m 95.333787,122.87725 -2.819344,4.88326"
       id="path1004-8-3" />
    <path
       id="path1004-9-3-7"
       d="m 96.492898,122.87725 -2.819345,4.88326"
       style="fill:none;stroke:#000000;stroke-width:0.264583px;stroke-linecap:butt;stroke-linejoin:miter;stroke-opacity:1" />
    <rect
       ry="1.173107e-12"
       rx="4.9444804"
       y="150.31888"
       x="66.158485"
       height="30.616072"
       width="62.744045"
       id="rect1066-9"
       style="fill:none;stroke:#000000;stroke-width:1;stroke-miterlimit:4;stroke-dasharray:1, 1;stroke-dashoffset:0" />
    <text
       id="text1070-05"
       y="157.16649"
       x="75.648178"
       style="font-style:normal;font-variant:normal;font-weight:normal;font-stretch:normal;font-size:3.52777px;line-height:1.25;font-family:sans-serif;-inkscape-font-specification:'sans-serif, Normal';font-variant-ligatures:normal;font-variant-caps:normal;font-variant-numeric:normal;font-feature-settings:normal;text-align:start;letter-spacing:0px;word-spacing:0px;writing-mode:lr-tb;text-anchor:start;fill:#000000;fill-opacity:1;stroke:none;stroke-width:0.264583"
       xml:space="preserve"><tspan
         id="tspan1074-6"
         style="stroke-width:0.264583"
         y="157.16649"
         x="75.648178"
         sodipodi:role="line">Measurement + MATLAB</tspan></text>
    <text
       xml:space="preserve"
       style="font-style:normal;font-variant:normal;font-weight:normal;font-stretch:normal;font-size:3.52777px;line-height:1.25;font-family:sans-serif;-inkscape-font-specification:'sans-serif, Normal';font-variant-ligatures:normal;font-variant-caps:normal;font-variant-numeric:normal;font-feature-settings:normal;text-align:start;letter-spacing:0px;word-spacing:0px;writing-mode:lr-tb;text-anchor:start;fill:#000000;fill-opacity:1;stroke:none;stroke-width:0.264583"
       x="130.83269"
       y="163.95958"
       id="text1070-0-31"><tspan
         sodipodi:role="line"
         x="130.83269"
         y="163.95958"
         style="stroke-width:0.264583"
         id="tspan1074-0-6">V_ch1..3</tspan></text>
    <text
       id="text1070-0-3-6"
       y="170.36238"
       x="130.64149"
       style="font-style:normal;font-variant:normal;font-weight:normal;font-stretch:normal;font-size:3.52777px;line-height:1.25;font-family:sans-serif;-inkscape-font-specification:'sans-serif, Normal';font-variant-ligatures:normal;font-variant-caps:normal;font-variant-numeric:normal;font-feature-settings:normal;text-align:start;letter-spacing:0px;word-spacing:0px;writing-mode:lr-tb;text-anchor:start;fill:#000000;fill-opacity:1;stroke:none;stroke-width:0.264583"
       xml:space="preserve"><tspan
         id="tspan1074-0-8-7"
         style="stroke-width:0.264583"
         y="170.36238"
         x="130.64149"
         sodipodi:role="line">I_ch1..3</tspan></text>
    <ellipse
       ry="2.6756554"
       rx="1.6536459"
       cy="125.82117"
       cx="151.81734"
       id="path1116-40"
       style="fill:none;stroke:#000000;stroke-width:0.499999;stroke-miterlimit:4;stroke-dasharray:none;stroke-dashoffset:0" />
    <path
       sodipodi:nodetypes="ccc"
       id="path1118-85"
       d="m 151.82948,128.66709 v 37.72675 l -22.80345,0"
       style="fill:none;stroke:#000000;stroke-width:0.264583px;stroke-linecap:butt;stroke-linejoin:miter;stroke-opacity:1" />
    <text
       id="text1122-67"
       y="164.19685"
       x="79.690033"
       style="font-style:normal;font-variant:normal;font-weight:normal;font-stretch:normal;font-size:3.52777px;line-height:1.25;font-family:sans-serif;-inkscape-font-specification:'sans-serif, Normal';font-variant-ligatures:normal;font-variant-caps:normal;font-variant-numeric:normal;font-feature-settings:normal;text-align:start;letter-spacing:0px;word-spacing:0px;writing-mode:lr-tb;text-anchor:start;fill:#000000;fill-opacity:1;stroke:none;stroke-width:0.264583"
       xml:space="preserve"><tspan
         style="stroke-width:0.264583"
         y="164.19685"
         x="79.690033"
         id="tspan1120-0"
         sodipodi:role="line">- Grid voltage analysis</tspan><tspan
         id="tspan1124-4"
         style="stroke-width:0.264583"
         y="168.60657"
         x="79.690033"
         sodipodi:role="line">- Spectrum Analysis</tspan><tspan
         id="tspan1126-48"
         style="stroke-width:0.264583"
         y="173.01628"
         x="79.690033"
         sodipodi:role="line">- THD</tspan></text>
    <circle
       style="fill:none;stroke:#000000;stroke-width:0.409822;stroke-miterlimit:4;stroke-dasharray:none;stroke-dashoffset:0"
       id="path921-4-6"
       cx="120.62399"
       cy="125.31889"
       r="3.8933034" />
    <text
       xml:space="preserve"
       style="font-style:normal;font-variant:normal;font-weight:normal;font-stretch:normal;font-size:4.28496px;line-height:1.25;font-family:sans-serif;-inkscape-font-specification:'sans-serif, Normal';font-variant-ligatures:normal;font-variant-caps:normal;font-variant-numeric:normal;font-feature-settings:normal;text-align:start;letter-spacing:0px;word-spacing:0px;writing-mode:lr-tb;text-anchor:start;fill:#000000;fill-opacity:1;stroke:none;stroke-width:0.0780859"
       x="118.81837"
       y="126.87658"
       id="text940-8-9"><tspan
         sodipodi:role="line"
         id="tspan938-3-1"
         x="118.81837"
         y="126.87658"
         style="stroke-width:0.0780859">M</tspan></text>
    <circle
       r="3.8933034"
       cy="125.31889"
       cx="132.76414"
       id="path921-4-6-0"
       style="fill:none;stroke:#000000;stroke-width:0.409821;stroke-miterlimit:4;stroke-dasharray:none;stroke-dashoffset:0" />
    <text
       id="text940-8-9-0"
       y="126.87449"
       x="130.95851"
       style="font-style:normal;font-variant:normal;font-weight:normal;font-stretch:normal;font-size:4.28495px;line-height:1.25;font-family:sans-serif;-inkscape-font-specification:'sans-serif, Normal';font-variant-ligatures:normal;font-variant-caps:normal;font-variant-numeric:normal;font-feature-settings:normal;text-align:start;letter-spacing:0px;word-spacing:0px;writing-mode:lr-tb;text-anchor:start;fill:#000000;fill-opacity:1;stroke:none;stroke-width:0.0780859"
       xml:space="preserve"><tspan
         style="stroke-width:0.0780859"
         y="126.87449"
         x="130.95851"
         id="tspan938-3-1-6"
         sodipodi:role="line">G</tspan></text>
    <path
       id="path1256"
       d="m 124.5904,125.35438 h 4.39397"
       style="fill:none;stroke:#000000;stroke-width:2;stroke-linecap:butt;stroke-linejoin:miter;stroke-miterlimit:4;stroke-dasharray:none;stroke-opacity:1" />
    <text
       id="text849-0-3-1"
       y="114.95813"
       x="166.9895"
       style="font-style:normal;font-variant:normal;font-weight:normal;font-stretch:normal;font-size:6.45242px;line-height:1.25;font-family:sans-serif;-inkscape-font-specification:'sans-serif, Normal';font-variant-ligatures:normal;font-variant-caps:normal;font-variant-numeric:normal;font-feature-settings:normal;text-align:start;letter-spacing:0px;word-spacing:0px;writing-mode:lr-tb;text-anchor:start;fill:#000000;fill-opacity:1;stroke:none;stroke-width:0.264583"
       xml:space="preserve"><tspan
         style="stroke-width:0.264583"
         y="114.95813"
         x="166.9895"
         id="tspan847-9-4-1"
         sodipodi:role="line">Load</tspan></text>
    <path
       sodipodi:nodetypes="cccccccccc"
       id="path983-5"
       d="m 165.91739,124.98277 3.28389,-0.0362 1.1476,-2.04064 1.70614,4.83905 1.77592,-4.83905 1.63964,4.83905 1.84243,-4.83905 1.57312,4.83905 1.15487,-2.7307 3.48076,-0.0362"
       style="fill:none;stroke:#000000;stroke-width:0.511818;stroke-linecap:butt;stroke-linejoin:miter;stroke-miterlimit:4;stroke-dasharray:none;stroke-opacity:1" />
    <rect
       style="fill:none;stroke:#000000;stroke-width:0.750001;stroke-miterlimit:4;stroke-dasharray:none;stroke-dashoffset:0"
       id="rect942-1-5"
       width="20"
       height="15"
       x="164.7195"
       y="117.81888"
       rx="4.9444804"
       ry="1.173107e-12" />
    <path
       style="fill:none;stroke:#000000;stroke-width:0.264583px;stroke-linecap:butt;stroke-linejoin:miter;stroke-opacity:1"
       d="m 139.51448,125.31888 25.40237,0"
       id="path1002-7-6"
       sodipodi:nodetypes="cc" />
    <path
       id="path1004-8-3-3"
       d="m 145.18646,122.87725 -2.81935,4.88326"
       style="fill:none;stroke:#000000;stroke-width:0.264583px;stroke-linecap:butt;stroke-linejoin:miter;stroke-opacity:1" />
    <path
       style="fill:none;stroke:#000000;stroke-width:0.264583px;stroke-linecap:butt;stroke-linejoin:miter;stroke-opacity:1"
       d="m 146.45598,122.87725 -2.81935,4.88326"
       id="path1004-9-3-7-0" />
    <path
       id="path1004-8-3-0"
       d="m 147.72552,122.87725 -2.81935,4.88326"
       style="fill:none;stroke:#000000;stroke-width:0.264583px;stroke-linecap:butt;stroke-linejoin:miter;stroke-opacity:1" />
    <path
       style="fill:none;stroke:#000000;stroke-width:0.511818;stroke-linecap:butt;stroke-linejoin:miter;stroke-miterlimit:4;stroke-dasharray:none;stroke-opacity:1"
       d="m 165.99216,143.58853 3.28389,-0.0362 c 0.12605,-1.08631 0.46758,-1.86335 1.1476,-2.04064 1.40761,-0.36697 1.70614,3.77147 1.70614,4.83906 0,0 0.0578,-4.86057 1.77592,-4.83906 1.70297,0.0213 1.63964,4.83906 1.63964,4.83906 0,0 0.11698,-4.88176 1.84243,-4.83906 1.69559,0.042 1.57312,4.83906 1.57312,4.83906 0.0531,-1.2482 0.43068,-2.73071 1.15487,-2.73071 l 3.48076,-0.0362"
       id="path983-5-5"
       sodipodi:nodetypes="ccssscsccc" />
    <rect
       ry="1.173107e-12"
       rx="4.9444804"
       y="136.42464"
       x="164.79427"
       height="15"
       width="20"
       id="rect942-1-5-5"
       style="fill:none;stroke:#000000;stroke-width:0.750001;stroke-miterlimit:4;stroke-dasharray:none;stroke-dashoffset:0" />
    <path
       id="path1341"
       d="m 156.67113,125.29911 v 18.44996 h 8.15011"
       style="fill:none;stroke:#000000;stroke-width:0.264583px;stroke-linecap:butt;stroke-linejoin:miter;stroke-opacity:1" />
  </g>
</svg>
