<?xml version="1.0" encoding="UTF-8" standalone="no"?>
<svg
   xmlns:dc="http://purl.org/dc/elements/1.1/"
   xmlns:cc="http://creativecommons.org/ns#"
   xmlns:rdf="http://www.w3.org/1999/02/22-rdf-syntax-ns#"
   xmlns:svg="http://www.w3.org/2000/svg"
   xmlns="http://www.w3.org/2000/svg"
   xmlns:sodipodi="http://sodipodi.sourceforge.net/DTD/sodipodi-0.dtd"
   xmlns:inkscape="http://www.inkscape.org/namespaces/inkscape"
   sodipodi:docname="accets.svg"
   inkscape:version="1.0 (4035a4fb49, 2020-05-01)"
   id="svg8"
   version="1.1"
   viewBox="0 0 210 297"
   height="297mm"
   width="210mm">
  <defs
     id="defs2">
    <clipPath
       id="clipPath977"
       clipPathUnits="userSpaceOnUse">
      <rect
         ry="1.173107e-12"
         rx="4.9444804"
         y="78.844505"
         x="35.546848"
         height="38.887714"
         width="80.84903"
         id="rect979"
         style="fill:none;stroke:#000000;stroke-width:0.750001;stroke-miterlimit:4;stroke-dasharray:none;stroke-dashoffset:0" />
    </clipPath>
  </defs>
  <sodipodi:namedview
     inkscape:window-maximized="1"
     inkscape:window-y="133"
     inkscape:window-x="-8"
     inkscape:window-height="1027"
     inkscape:window-width="1920"
     inkscape:guide-bbox="true"
     showguides="true"
     showgrid="false"
     inkscape:document-rotation="0"
     inkscape:current-layer="layer1"
     inkscape:document-units="mm"
     inkscape:cy="163.96982"
     inkscape:cx="277.99275"
     inkscape:zoom="1.4"
     inkscape:pageshadow="2"
     inkscape:pageopacity="0.0"
     borderopacity="1.0"
     bordercolor="#666666"
     pagecolor="#ffffff"
     id="base">
    <sodipodi:guide
       inkscape:color="rgb(0,0,255)"
       inkscape:locked="false"
       inkscape:label=""
       id="guide833"
       orientation="0,1"
       position="0,297" />
    <sodipodi:guide
       inkscape:color="rgb(0,0,255)"
       inkscape:locked="false"
       inkscape:label=""
       id="guide835"
       orientation="0,1"
       position="0,247" />
    <sodipodi:guide
       inkscape:color="rgb(0,0,255)"
       inkscape:locked="false"
       inkscape:label=""
       id="guide837"
       orientation="-1,0"
       position="0,297" />
    <sodipodi:guide
       inkscape:color="rgb(0,0,255)"
       inkscape:locked="false"
       inkscape:label=""
       id="guide839"
       orientation="-1,0"
       position="50,297" />
    <sodipodi:guide
       inkscape:color="rgb(0,0,255)"
       inkscape:locked="false"
       inkscape:label=""
       id="guide841"
       orientation="-1,0"
       position="100,297" />
    <sodipodi:guide
       inkscape:color="rgb(0,0,255)"
       inkscape:locked="false"
       inkscape:label=""
       id="guide843"
       orientation="-1,0"
       position="150,297" />
    <sodipodi:guide
       inkscape:color="rgb(0,0,255)"
       inkscape:locked="false"
       inkscape:label=""
       id="guide845"
       orientation="-1,0"
       position="200,297" />
    <sodipodi:guide
       inkscape:color="rgb(0,0,255)"
       inkscape:locked="false"
       inkscape:label=""
       id="guide919"
       orientation="0,1"
       position="0,272" />
  </sodipodi:namedview>
  <metadata
     id="metadata5">
    <rdf:RDF>
      <cc:Work
         rdf:about="">
        <dc:format>image/svg+xml</dc:format>
        <dc:type
           rdf:resource="http://purl.org/dc/dcmitype/StillImage" />
        <dc:title></dc:title>
      </cc:Work>
    </rdf:RDF>
  </metadata>
  <g
     id="layer1"
     inkscape:groupmode="layer"
     inkscape:label="Camada 1">
    <text
       id="text849"
       y="14.902331"
       x="18.330179"
       style="font-style:normal;font-variant:normal;font-weight:normal;font-stretch:normal;font-size:6.45243px;line-height:1.25;font-family:sans-serif;-inkscape-font-specification:'sans-serif, Normal';font-variant-ligatures:normal;font-variant-caps:normal;font-variant-numeric:normal;font-feature-settings:normal;text-align:start;letter-spacing:0px;word-spacing:0px;writing-mode:lr-tb;text-anchor:start;fill:#000000;fill-opacity:1;stroke:none;stroke-width:0.264583"
       xml:space="preserve"><tspan
         style="stroke-width:0.264583"
         y="14.902331"
         x="18.330179"
         id="tspan847"
         sodipodi:role="line">Grid</tspan></text>
    <text
       xml:space="preserve"
       style="font-style:normal;font-variant:normal;font-weight:normal;font-stretch:normal;font-size:6.45242px;line-height:1.25;font-family:sans-serif;-inkscape-font-specification:'sans-serif, Normal';font-variant-ligatures:normal;font-variant-caps:normal;font-variant-numeric:normal;font-feature-settings:normal;text-align:start;letter-spacing:0px;word-spacing:0px;writing-mode:lr-tb;text-anchor:start;fill:#000000;fill-opacity:1;stroke:none;stroke-width:0.264583"
       x="64.414001"
       y="14.472272"
       id="text849-0"><tspan
         sodipodi:role="line"
         id="tspan847-9"
         x="64.414001"
         y="14.472272"
         style="stroke-width:0.264583">AC/DC</tspan></text>
    <text
       id="text849-0-3"
       y="14.472272"
       x="117.27001"
       style="font-style:normal;font-variant:normal;font-weight:normal;font-stretch:normal;font-size:6.45242px;line-height:1.25;font-family:sans-serif;-inkscape-font-specification:'sans-serif, Normal';font-variant-ligatures:normal;font-variant-caps:normal;font-variant-numeric:normal;font-feature-settings:normal;text-align:start;letter-spacing:0px;word-spacing:0px;writing-mode:lr-tb;text-anchor:start;fill:#000000;fill-opacity:1;stroke:none;stroke-width:0.264583"
       xml:space="preserve"><tspan
         style="stroke-width:0.264583"
         y="14.472272"
         x="117.27001"
         id="tspan847-9-4"
         sodipodi:role="line">Load</tspan></text>
    <circle
       r="7.1249995"
       cy="25"
       cx="25"
       id="path921"
       style="fill:none;stroke:#000000;stroke-width:0.75;stroke-miterlimit:4;stroke-dasharray:none;stroke-dashoffset:0" />
    <text
       id="text940"
       y="29.686064"
       x="19.05912"
       style="font-style:normal;font-variant:normal;font-weight:normal;font-stretch:normal;font-size:14.519px;line-height:1.25;font-family:sans-serif;-inkscape-font-specification:'sans-serif, Normal';font-variant-ligatures:normal;font-variant-caps:normal;font-variant-numeric:normal;font-feature-settings:normal;text-align:start;letter-spacing:0px;word-spacing:0px;writing-mode:lr-tb;text-anchor:start;fill:#000000;fill-opacity:1;stroke:none;stroke-width:0.264583"
       xml:space="preserve"><tspan
         style="stroke-width:0.264583"
         y="29.686064"
         x="19.05912"
         id="tspan938"
         sodipodi:role="line">~</tspan></text>
    <rect
       ry="1.173107e-12"
       rx="4.9444804"
       y="17.5"
       x="65"
       height="15"
       width="20"
       id="rect942"
       style="fill:none;stroke:#000000;stroke-width:0.750001;stroke-miterlimit:4;stroke-dasharray:none;stroke-dashoffset:0" />
    <path
       id="path958"
       d="M 74.863973,30.469308 V 29.876986 L 74.72308,29.758408 c -0.122275,-0.102958 -0.137927,-0.14069 -0.118424,-0.286054 0.02207,-0.164531 0.01005,-0.17989 -0.674861,-0.863754 l -0.697329,-0.696239 -0.308692,0.306338 -0.308696,0.306324 -0.108623,-0.11565 -0.108623,-0.115648 0.289762,-0.292374 c 0.159368,-0.160792 0.277558,-0.304551 0.262642,-0.319478 -0.01491,-0.01493 -0.309607,-0.08789 -0.654867,-0.162202 -0.345262,-0.07421 -0.657196,-0.145126 -0.693189,-0.157417 -0.04538,-0.01548 0.02175,-0.107419 0.219069,-0.299864 l 0.284513,-0.277544 -0.773413,-0.773411 c -0.60969,-0.60969 -0.785153,-0.76168 -0.82887,-0.71796 -0.0915,0.09152 -0.217718,0.06334 -0.361667,-0.0805 l -0.136007,-0.136012 h -0.699258 c -0.591334,0 -0.699256,-0.01116 -0.699256,-0.06808 0,-0.05762 0.110487,-0.06794 0.722358,-0.06794 0.662769,0 0.724554,-0.007 0.748954,-0.08384 0.03198,-0.100717 0.23259,-0.20037 0.336856,-0.167266 0.05258,0.0166 0.324276,-0.225885 0.912052,-0.814314 l 0.83716,-0.838073 -0.306888,-0.309266 -0.306888,-0.309253 0.688499,-0.143676 c 0.378672,-0.0791 0.69965,-0.154835 0.713281,-0.168466 0.01367,-0.01395 -0.112343,-0.162968 -0.279939,-0.331852 l -0.304719,-0.307077 0.106105,-0.09975 c 0.05836,-0.05482 0.12575,-0.0996 0.149743,-0.0996 0.02399,0 0.185191,0.142643 0.358207,0.31701 l 0.314577,0.316995 0.657687,-0.645709 c 0.601355,-0.590397 0.656553,-0.65807 0.644445,-0.790055 -0.01613,-0.175762 0.05278,-0.31574 0.174469,-0.354355 0.08603,-0.02734 0.09072,-0.0685 0.09072,-0.796485 0,-0.481584 0.0169,-0.767707 0.04534,-0.767707 0.02836,0 0.04534,0.276219 0.04534,0.737992 v 0.737977 l 0.140946,0.123741 c 0.118997,0.10435 0.137998,0.148949 0.122011,0.285914 -0.01836,0.157235 0.0039,0.184857 0.723624,0.895199 0.408411,0.403126 0.751884,0.741995 0.763275,0.75303 0.01144,0.01116 0.141382,-0.09933 0.28887,-0.24529 0.25625,-0.253577 0.269272,-0.260496 0.293221,-0.156091 0.01381,0.06012 0.07649,0.354103 0.139337,0.65334 0.06284,0.299236 0.124983,0.573321 0.138082,0.609076 0.01667,0.04548 0.115705,-0.02608 0.330087,-0.238902 l 0.30627,-0.303909 0.122094,0.127366 0.122094,0.127508 -0.29452,0.291899 -0.294525,0.291912 0.713948,0.714987 c 0.39267,0.393249 0.738727,0.715002 0.769015,0.715002 0.109385,0 0.284861,0.10616 0.310883,0.188233 0.02464,0.07756 0.08991,0.08385 0.884969,0.08385 0.732771,0 0.858372,0.0097 0.858372,0.06793 0,0.05804 -0.123029,0.06808 -0.835271,0.06808 h -0.835271 l -0.139598,0.139602 c -0.111115,0.111185 -0.165011,0.134064 -0.264182,0.112441 -0.113027,-0.02469 -0.18874,0.03711 -0.816339,0.666035 l -0.691753,0.693196 0.317092,0.314666 0.317091,0.314653 -0.122038,0.127367 -0.122039,0.127368 -0.306764,-0.304413 c -0.168721,-0.167433 -0.31396,-0.29533 -0.322754,-0.28424 -0.0088,0.01116 -0.05169,0.193604 -0.09531,0.405553 -0.04363,0.211962 -0.110586,0.525457 -0.148807,0.696657 l -0.06949,0.311276 -0.29027,-0.2877 -0.290273,-0.287686 -0.742599,0.741577 c -0.730832,0.729817 -0.742242,0.744227 -0.720135,0.909038 0.01949,0.145335 0.0038,0.183155 -0.118425,0.286039 l -0.140894,0.118579 v 0.592321 c 0,0.364664 -0.01742,0.592336 -0.04534,0.592336 -0.02792,0 -0.04534,-0.227672 -0.04534,-0.592336 z m 0.985256,-2.002417 0.736898,-0.735885 -0.279963,-0.282482 c -0.192709,-0.194427 -0.259718,-0.289109 -0.215005,-0.303757 0.03573,-0.01116 0.27918,-0.06528 0.541009,-0.118997 0.261828,-0.05371 0.555537,-0.11802 0.652687,-0.142671 l 0.176635,-0.04492 -0.307151,-0.309533 -0.307152,-0.309518 0.118815,-0.128204 0.118816,-0.128065 0.318057,0.315614 0.31806,0.315629 0.681865,-0.679177 c 0.63163,-0.62915 0.680066,-0.689207 0.657404,-0.815207 -0.01353,-0.07547 0.0032,-0.189112 0.03777,-0.255349 0.06141,-0.117741 0.05306,-0.128483 -0.634766,-0.815249 l -0.696993,-0.695903 -0.330044,0.327835 -0.330046,0.32785 -0.123586,-0.123601 -0.123573,-0.123601 0.302997,-0.305348 c 0.208615,-0.210219 0.282742,-0.312154 0.237972,-0.327235 -0.03577,-0.01256 -0.320052,-0.07547 -0.631753,-0.140787 -0.3117,-0.06543 -0.604828,-0.129879 -0.651393,-0.143299 -0.07115,-0.02051 -0.04038,-0.06906 0.192689,-0.304273 0.152543,-0.153901 0.277352,-0.29992 0.277352,-0.324486 0,-0.02456 -0.325241,-0.369409 -0.722757,-0.76634 l -0.722757,-0.721697 -0.229767,-0.0028 -0.229767,-0.0028 -0.644701,0.645863 -0.644703,0.645849 0.292578,0.295205 0.292579,0.295205 -0.123363,0.123322 -0.123364,0.123322 -0.296359,-0.293531 c -0.202176,-0.200244 -0.307241,-0.275995 -0.330605,-0.238329 -0.01883,0.03027 -0.09373,0.341492 -0.16643,0.691397 -0.07269,0.349919 -0.144081,0.636223 -0.158626,0.636223 -0.01453,0 -0.126922,-0.101976 -0.249725,-0.226694 -0.122806,-0.124717 -0.244246,-0.226695 -0.269866,-0.226695 -0.02563,0 -0.407692,0.360689 -0.84905,0.801536 -0.69847,0.697661 -0.796419,0.812835 -0.755801,0.88874 0.02567,0.04799 0.03508,0.130995 0.02093,0.184564 -0.02108,0.07979 0.111547,0.234953 0.732171,0.856794 0.416851,0.417675 0.772088,0.759419 0.789414,0.759419 0.01733,0 0.145522,-0.112161 0.284881,-0.249364 0.139365,-0.137132 0.269154,-0.249364 0.288436,-0.249364 0.01928,0 0.09454,0.286305 0.16724,0.636224 0.07269,0.349918 0.147595,0.661055 0.166431,0.69141 0.02336,0.03767 0.128009,-0.03767 0.329366,-0.237114 l 0.295119,-0.29229 0.115621,0.108678 0.11562,0.108678 -0.295875,0.298163 c -0.162734,0.163988 -0.295877,0.317805 -0.295877,0.341813 0,0.02399 0.300677,0.344841 0.668172,0.712937 0.662974,0.664083 0.669761,0.6693 0.872264,0.6693 0.203241,0 0.207142,-0.0028 0.940985,-0.735886 z"
       style="fill:#000000;stroke-width:0.999998" />
    <path
       sodipodi:nodetypes="cccccccccc"
       id="path983"
       d="m 116.1979,24.663929 3.28389,-0.03624 1.1476,-2.040636 1.70614,4.839048 1.77592,-4.839048 1.63964,4.839048 1.84243,-4.839048 1.57312,4.839048 1.15487,-2.730703 3.48076,-0.03616"
       style="fill:none;stroke:#000000;stroke-width:0.511817;stroke-linecap:butt;stroke-linejoin:miter;stroke-miterlimit:4;stroke-dasharray:none;stroke-opacity:1" />
    <rect
       style="fill:none;stroke:#000000;stroke-width:0.750001;stroke-miterlimit:4;stroke-dasharray:none;stroke-dashoffset:0"
       id="rect942-1"
       width="20"
       height="15"
       x="115"
       y="17.5"
       rx="4.9444804"
       ry="1.173107e-12" />
    <path
       id="path1000"
       d="M 32.072344,25 H 64.946495"
       style="fill:none;stroke:#000000;stroke-width:0.264583px;stroke-linecap:butt;stroke-linejoin:miter;stroke-opacity:1" />
    <path
       id="path1002"
       d="M 85.058527,25 H 115.05953"
       style="fill:none;stroke:#000000;stroke-width:0.264583px;stroke-linecap:butt;stroke-linejoin:miter;stroke-opacity:1" />
    <path
       id="path1004"
       d="m 40.892237,22.558371 -2.819349,4.883258"
       style="fill:none;stroke:#000000;stroke-width:0.264583px;stroke-linecap:butt;stroke-linejoin:miter;stroke-opacity:1" />
    <path
       style="fill:none;stroke:#000000;stroke-width:0.264583px;stroke-linecap:butt;stroke-linejoin:miter;stroke-opacity:1"
       d="m 42.051347,22.558371 -2.819349,4.883258"
       id="path1004-9" />
    <path
       style="fill:none;stroke:#000000;stroke-width:0.264583px;stroke-linecap:butt;stroke-linejoin:miter;stroke-opacity:1"
       d="m 93.73364,22.558371 -2.819345,4.883258"
       id="path1004-8" />
    <path
       id="path1004-9-3"
       d="M 94.89275,22.558371 92.073405,27.44163"
       style="fill:none;stroke:#000000;stroke-width:0.264583px;stroke-linecap:butt;stroke-linejoin:miter;stroke-opacity:1" />
    <rect
       ry="1.173107e-12"
       rx="4.9444804"
       y="50"
       x="63.500004"
       height="30.616072"
       width="62.744045"
       id="rect1066"
       style="fill:none;stroke:#000000;stroke-width:1;stroke-miterlimit:4;stroke-dasharray:1, 1;stroke-dashoffset:0" />
    <text
       id="text1070"
       y="56.847618"
       x="72.989693"
       style="font-style:normal;font-variant:normal;font-weight:normal;font-stretch:normal;font-size:3.52777px;line-height:1.25;font-family:sans-serif;-inkscape-font-specification:'sans-serif, Normal';font-variant-ligatures:normal;font-variant-caps:normal;font-variant-numeric:normal;font-feature-settings:normal;text-align:start;letter-spacing:0px;word-spacing:0px;writing-mode:lr-tb;text-anchor:start;fill:#000000;fill-opacity:1;stroke:none;stroke-width:0.264583"
       xml:space="preserve"><tspan
         id="tspan1074"
         style="stroke-width:0.264583"
         y="56.847618"
         x="72.989693"
         sodipodi:role="line">Measurement + MATLAB</tspan></text>
    <text
       xml:space="preserve"
       style="font-style:normal;font-variant:normal;font-weight:normal;font-stretch:normal;font-size:3.52777px;line-height:1.25;font-family:sans-serif;-inkscape-font-specification:'sans-serif, Normal';font-variant-ligatures:normal;font-variant-caps:normal;font-variant-numeric:normal;font-feature-settings:normal;text-align:start;letter-spacing:0px;word-spacing:0px;writing-mode:lr-tb;text-anchor:start;fill:#000000;fill-opacity:1;stroke:none;stroke-width:0.264583"
       x="49.082695"
       y="67.798439"
       id="text1070-0"><tspan
         sodipodi:role="line"
         x="49.082695"
         y="67.798439"
         style="stroke-width:0.264583"
         id="tspan1074-0">V_ch1</tspan></text>
    <text
       id="text1070-0-3"
       y="74.201248"
       x="48.891491"
       style="font-style:normal;font-variant:normal;font-weight:normal;font-stretch:normal;font-size:3.52777px;line-height:1.25;font-family:sans-serif;-inkscape-font-specification:'sans-serif, Normal';font-variant-ligatures:normal;font-variant-caps:normal;font-variant-numeric:normal;font-feature-settings:normal;text-align:start;letter-spacing:0px;word-spacing:0px;writing-mode:lr-tb;text-anchor:start;fill:#000000;fill-opacity:1;stroke:none;stroke-width:0.264583"
       xml:space="preserve"><tspan
         id="tspan1074-0-8"
         style="stroke-width:0.264583"
         y="74.201248"
         x="48.891491"
         sodipodi:role="line">I_ch1</tspan></text>
    <ellipse
       ry="2.6756551"
       rx="1.6536458"
       cy="25.502293"
       cx="47.294266"
       id="path1116"
       style="fill:none;stroke:#000000;stroke-width:0.5;stroke-miterlimit:4;stroke-dasharray:none;stroke-dashoffset:0" />
    <path
       sodipodi:nodetypes="ccc"
       id="path1118"
       d="m 47.341517,28.348215 v 41.766367 l 15.480166,0"
       style="fill:none;stroke:#000000;stroke-width:0.264583px;stroke-linecap:butt;stroke-linejoin:miter;stroke-opacity:1" />
    <text
       id="text1122"
       y="63.877972"
       x="77.031548"
       style="font-style:normal;font-variant:normal;font-weight:normal;font-stretch:normal;font-size:3.52777px;line-height:1.25;font-family:sans-serif;-inkscape-font-specification:'sans-serif, Normal';font-variant-ligatures:normal;font-variant-caps:normal;font-variant-numeric:normal;font-feature-settings:normal;text-align:start;letter-spacing:0px;word-spacing:0px;writing-mode:lr-tb;text-anchor:start;fill:#000000;fill-opacity:1;stroke:none;stroke-width:0.264583"
       xml:space="preserve"><tspan
         style="stroke-width:0.264583"
         y="63.877972"
         x="77.031548"
         id="tspan1120"
         sodipodi:role="line">- Grid voltage analysis</tspan><tspan
         id="tspan1124"
         style="stroke-width:0.264583"
         y="68.287682"
         x="77.031548"
         sodipodi:role="line">- Spectrum Analysis</tspan><tspan
         id="tspan1126"
         style="stroke-width:0.264583"
         y="72.697395"
         x="77.031548"
         sodipodi:role="line">- THD</tspan></text>
  </g>
</svg>
